<svg width="9" height="15" viewBox="0 0 9 15" fill="none" xmlns="http://www.w3.org/2000/svg">
<path d="M8.62214 14.63C8.37023 14.8767 8.04962 15 7.66031 15C7.27099 15 6.95038 14.8767 6.69847 14.63L0.377862 8.4417C0.240457 8.30718 0.143358 8.16144 0.0865642 8.00449C0.0297703 7.84753 0.000915711 7.67937 -3.27835e-07 7.5C-3.35676e-07 7.32063 0.0343505 7.14664 0.103053 6.97803C0.171755 6.80942 0.263358 6.66951 0.377862 6.5583L6.69847 0.369957C6.95038 0.123321 7.27099 6.8723e-08 7.6603 5.17056e-08C8.04962 3.46882e-08 8.37023 0.12332 8.62214 0.369957C8.87404 0.616594 9 0.930494 9 1.31166C9 1.69283 8.87405 2.00673 8.62214 2.25336L3.26336 7.5L8.62214 12.7466C8.87405 12.9933 9 13.3072 9 13.6883C9 14.0695 8.87405 14.3834 8.62214 14.63Z" fill="black"/>
</svg>
