<svg width="20" height="30" viewBox="0 0 50 60" fill="none" xmlns="http://www.w3.org/2000/svg">
<path d="M25 0C28.1337 0 31.1391 1.26428 33.355 3.51472C35.5709 5.76516 36.8158 8.8174 36.8158 12H42.8271C44.3577 11.9998 45.8288 12.603 46.9302 13.6824C48.0317 14.7619 48.6777 16.2334 48.732 17.787L49.9963 53.787C50.0244 54.5922 49.8926 55.3948 49.6087 56.1472C49.3249 56.8995 48.8947 57.586 48.3439 58.1659C47.7931 58.7457 47.1329 59.2069 46.4028 59.522C45.6727 59.8371 44.8876 59.9997 44.0943 60H5.9057C5.1124 59.9997 4.32728 59.8371 3.59717 59.522C2.86706 59.2069 2.20692 58.7457 1.65612 58.1659C1.10532 57.586 0.675143 56.8995 0.39125 56.1472C0.107357 55.3948 -0.0244383 54.5922 0.00372412 53.787L1.26801 17.787C1.32235 16.2334 1.96829 14.7619 3.06977 13.6824C4.17124 12.603 5.64226 11.9998 7.17295 12H13.1842C13.1842 8.8174 14.4291 5.76516 16.645 3.51472C18.8609 1.26428 21.8663 0 25 0ZM13.1842 18H7.17295L5.9057 54H44.0943L42.8271 18H36.8158V21C36.8149 21.7646 36.5266 22.5001 36.0098 23.0561C35.493 23.6121 34.7866 23.9467 34.035 23.9915C33.2833 24.0363 32.5433 23.788 31.9659 23.2972C31.3885 22.8064 31.0175 22.1103 30.9286 21.351L30.9079 21V18H19.0921V21C19.0913 21.7646 18.803 22.5001 18.2861 23.0561C17.7693 23.6121 17.0629 23.9467 16.3113 23.9915C15.5597 24.0363 14.8196 23.788 14.2422 23.2972C13.6649 22.8064 13.2938 22.1103 13.2049 21.351L13.1842 21V18ZM25 6C23.5095 5.99952 22.0739 6.57122 20.981 7.60049C19.8881 8.62976 19.2187 10.0405 19.1069 11.55L19.0921 12H30.9079C30.9079 10.4087 30.2854 8.88258 29.1775 7.75736C28.0696 6.63214 26.5669 6 25 6Z" fill="black"/>
</svg>
