<svg width="120" height="87" viewBox="0 0 120 87" fill="none" xmlns="http://www.w3.org/2000/svg">
<path d="M76.1378 36.0022C76.1378 37.0193 75.8466 38.0135 75.301 38.8591C74.7553 39.7047 73.9798 40.3638 73.0725 40.753C72.1652 41.1422 71.1668 41.2441 70.2036 41.0456C69.2404 40.8472 68.3556 40.3575 67.6612 39.6383C66.9667 38.9192 66.4938 38.0029 66.3022 37.0054C66.1106 36.0079 66.2089 34.974 66.5848 34.0344C66.9606 33.0948 67.597 32.2917 68.4136 31.7266C69.2302 31.1616 70.1902 30.86 71.1723 30.86C72.4892 30.86 73.7522 31.4018 74.6834 32.3661C75.6147 33.3305 76.1378 34.6384 76.1378 36.0022ZM48.8275 30.86C47.8454 30.86 46.8854 31.1616 46.0688 31.7266C45.2523 32.2917 44.6158 33.0948 44.24 34.0344C43.8642 34.974 43.7658 36.0079 43.9574 37.0054C44.149 38.0029 44.6219 38.9192 45.3164 39.6383C46.0108 40.3575 46.8956 40.8472 47.8588 41.0456C48.822 41.2441 49.8204 41.1422 50.7277 40.753C51.6351 40.3638 52.4106 39.7047 52.9562 38.8591C53.5018 38.0135 53.793 37.0193 53.793 36.0022C53.793 34.6384 53.2699 33.3305 52.3387 32.3661C51.4075 31.4018 50.1445 30.86 48.8275 30.86ZM95.9998 39.8589V47.5722C95.9917 49.2744 95.3351 50.9044 94.1729 52.108C93.0106 53.3116 91.4366 53.9916 89.7929 54H30.2069C28.5632 53.9916 26.9892 53.3116 25.827 52.108C24.6647 50.9044 24.0082 49.2744 24 47.5722V40.2124C23.9937 30.3054 27.7503 20.7932 34.4586 13.73L27.569 6.59516C26.8693 5.87064 26.4763 4.88798 26.4763 3.86336C26.4763 2.83873 26.8693 1.85607 27.569 1.13155C28.2686 0.407031 29.2175 0 30.2069 0C31.1963 0 32.1452 0.407031 32.8448 1.13155L40.231 8.7806C46.0486 4.75916 52.8813 2.60175 59.8758 2.5778H59.9999C67.0493 2.56003 73.9473 4.69524 79.8309 8.71632L87.155 1.13155C87.8546 0.407031 88.8035 -2.01978e-08 89.7929 0C90.7824 2.01978e-08 91.7312 0.407031 92.4309 1.13155C93.1305 1.85607 93.5235 2.83873 93.5235 3.86336C93.5235 4.88798 93.1305 5.87064 92.4309 6.59516L85.6033 13.6657C88.9139 17.1095 91.5362 21.1957 93.3202 25.6902C95.1041 30.1847 96.0147 34.9995 95.9998 39.8589ZM88.5516 39.8589C88.5516 35.9679 87.81 32.1151 86.3693 28.5215C84.9286 24.9279 82.8172 21.6641 80.1561 18.9172C77.495 16.1703 74.3364 13.9943 70.8616 12.5141C67.3868 11.0339 63.6641 10.2784 59.9068 10.2911C44.2034 10.3554 31.4483 23.7895 31.4483 40.2124V46.2867H88.5516V39.8589Z" fill="black"/>
<path d="M23.1034 78.216C22.3994 78.216 21.8554 78.024 21.4714 77.64C21.0874 77.24 20.8954 76.68 20.8954 75.96V63.12C20.8954 62.384 21.0874 61.824 21.4714 61.44C21.8554 61.056 22.3994 60.864 23.1034 60.864C23.8234 60.864 24.3674 61.056 24.7354 61.44C25.1194 61.824 25.3114 62.384 25.3114 63.12V75.96C25.3114 76.68 25.1274 77.24 24.7594 77.64C24.3914 78.024 23.8394 78.216 23.1034 78.216ZM34.5639 78.216C33.8599 78.216 33.3159 78.024 32.9319 77.64C32.5479 77.24 32.3559 76.688 32.3559 75.984V64.68H28.5879C27.9959 64.68 27.5399 64.528 27.2199 64.224C26.9159 63.904 26.7639 63.456 26.7639 62.88C26.7639 62.288 26.9159 61.84 27.2199 61.536C27.5399 61.232 27.9959 61.08 28.5879 61.08H40.5399C41.1319 61.08 41.5799 61.232 41.8839 61.536C42.2039 61.84 42.3639 62.288 42.3639 62.88C42.3639 63.456 42.2039 63.904 41.8839 64.224C41.5799 64.528 41.1319 64.68 40.5399 64.68H36.7719V75.984C36.7719 76.688 36.5879 77.24 36.2199 77.64C35.8519 78.024 35.2999 78.216 34.5639 78.216Z" fill="#FF0000"/>
<path d="M52.9884 78C52.2364 78 51.6604 77.808 51.2604 77.424C50.8764 77.024 50.6844 76.456 50.6844 75.72V63.36C50.6844 62.624 50.8764 62.064 51.2604 61.68C51.6604 61.28 52.2364 61.08 52.9884 61.08H61.1244C61.7004 61.08 62.1324 61.224 62.4204 61.512C62.7084 61.8 62.8524 62.216 62.8524 62.76C62.8524 63.32 62.7084 63.752 62.4204 64.056C62.1324 64.344 61.7004 64.488 61.1244 64.488H54.9084V67.704H60.5964C61.1564 67.704 61.5804 67.848 61.8684 68.136C62.1724 68.424 62.3244 68.848 62.3244 69.408C62.3244 69.968 62.1724 70.392 61.8684 70.68C61.5804 70.968 61.1564 71.112 60.5964 71.112H54.9084V74.592H61.1244C61.7004 74.592 62.1324 74.744 62.4204 75.048C62.7084 75.336 62.8524 75.752 62.8524 76.296C62.8524 76.856 62.7084 77.28 62.4204 77.568C62.1324 77.856 61.7004 78 61.1244 78H52.9884ZM67.7306 78C66.9786 78 66.4026 77.808 66.0026 77.424C65.6186 77.024 65.4266 76.456 65.4266 75.72V63.36C65.4266 62.624 65.6186 62.064 66.0026 61.68C66.4026 61.28 66.9786 61.08 67.7306 61.08H72.4346C75.3786 61.08 77.6506 61.816 79.2506 63.288C80.8666 64.76 81.6746 66.84 81.6746 69.528C81.6746 70.872 81.4666 72.072 81.0506 73.128C80.6346 74.168 80.0346 75.056 79.2506 75.792C78.4666 76.512 77.4986 77.064 76.3466 77.448C75.2106 77.816 73.9066 78 72.4346 78H67.7306ZM69.8426 74.424H72.1466C72.9946 74.424 73.7226 74.32 74.3306 74.112C74.9546 73.904 75.4666 73.6 75.8666 73.2C76.2826 72.8 76.5866 72.296 76.7786 71.688C76.9866 71.08 77.0906 70.36 77.0906 69.528C77.0906 67.864 76.6826 66.64 75.8666 65.856C75.0506 65.056 73.8106 64.656 72.1466 64.656H69.8426V74.424ZM84.6639 78.216C84.1679 78.216 83.7519 78.104 83.4159 77.88C83.0799 77.64 82.8719 77.32 82.7919 76.92C82.7119 76.504 82.7839 76.04 83.0079 75.528L88.9839 62.664C89.2719 62.04 89.6239 61.584 90.0399 61.296C90.4719 61.008 90.9599 60.864 91.5039 60.864C92.0479 60.864 92.5199 61.008 92.9199 61.296C93.3359 61.584 93.6959 62.04 93.9999 62.664L99.9759 75.528C100.232 76.04 100.32 76.504 100.24 76.92C100.176 77.336 99.9759 77.656 99.6399 77.88C99.3199 78.104 98.9199 78.216 98.4399 78.216C97.7999 78.216 97.3039 78.072 96.9519 77.784C96.6159 77.496 96.3119 77.032 96.0399 76.392L94.7439 73.344L96.4239 74.568H86.5359L88.2399 73.344L86.9439 76.392C86.6559 77.032 86.3599 77.496 86.0559 77.784C85.7519 78.072 85.2879 78.216 84.6639 78.216ZM91.4559 65.688L88.6719 72.336L87.9999 71.184H94.9839L94.3119 72.336L91.5039 65.688H91.4559Z" fill="black"/>
</svg>
