<svg width="36" height="36" viewBox="0 0 36 36" fill="none" xmlns="http://www.w3.org/2000/svg">
<path d="M23.5314 0H12.4866C2.3994 0 0 2.3994 0 12.4686V23.5134C0 33.5988 2.3814 36 12.4686 36H23.5134C33.5988 36 36 33.6186 36 23.5314V12.4866C36 2.3994 33.6186 0 23.5314 0ZM29.0628 25.686H26.4366C25.443 25.686 25.1442 24.8814 23.3622 23.0994C21.807 21.6 21.15 21.4128 20.7558 21.4128C20.2122 21.4128 20.0628 21.5622 20.0628 22.3128V24.6744C20.0628 25.3134 19.8558 25.6878 18.1872 25.6878C16.5678 25.579 14.9975 25.087 13.6055 24.2524C12.2135 23.4177 11.0397 22.2643 10.1808 20.8872C8.1417 18.3492 6.7229 15.3704 6.0372 12.1878C6.0372 11.7936 6.1866 11.4372 6.9372 11.4372H9.5616C10.2366 11.4372 10.4796 11.7378 10.7442 12.4308C12.0186 16.182 14.193 19.4436 15.075 19.4436C15.4134 19.4436 15.561 19.2942 15.561 18.45V14.5872C15.4494 12.825 14.5134 12.6756 14.5134 12.0384C14.5254 11.8703 14.6024 11.7136 14.7281 11.6013C14.8538 11.4891 15.0182 11.4302 15.1866 11.4372H19.3122C19.8756 11.4372 20.0628 11.718 20.0628 12.393V17.6058C20.0628 18.1692 20.3058 18.3564 20.475 18.3564C20.8134 18.3564 21.0744 18.1692 21.6936 17.55C23.0236 15.9281 24.1102 14.1211 24.9192 12.186C25.0019 11.9536 25.1584 11.7545 25.3647 11.6193C25.5711 11.4841 25.8161 11.4202 26.0622 11.4372H28.6884C29.475 11.4372 29.6424 11.8314 29.475 12.393C28.5201 14.5322 27.3385 16.5628 25.9506 18.45C25.668 18.882 25.5546 19.107 25.9506 19.6128C26.2116 20.007 27.1314 20.7756 27.7506 21.5064C28.6504 22.404 29.3977 23.4424 29.9628 24.5808C30.1878 25.3116 29.8116 25.686 29.0628 25.686Z" fill="black"/>
</svg>
