<svg width="36" height="36" viewBox="0 0 36 36" fill="none" xmlns="http://www.w3.org/2000/svg">
<path d="M0.00722408 36L2.44082 27.0576C0.837272 24.3087 -0.00520314 21.1824 2.4178e-05 18C2.4178e-05 8.05859 8.05862 0 18 0C27.9414 0 36 8.05859 36 18C36 27.9414 27.9414 36 18 36C14.819 36.0051 11.694 35.1633 8.94602 33.561L0.00722408 36ZM11.5038 9.55439C11.2714 9.56883 11.0442 9.63005 10.836 9.73439C10.6408 9.84497 10.4625 9.9832 10.3068 10.1448C10.0908 10.3482 9.96842 10.5246 9.83702 10.6956C9.17176 11.5614 8.81392 12.6241 8.82002 13.716C8.82362 14.598 9.05402 15.4566 9.41402 16.2594C10.1502 17.883 11.3616 19.602 12.9618 21.195C13.347 21.5784 13.7232 21.9636 14.1282 22.3218C16.1143 24.0704 18.4811 25.3315 21.0402 26.0046L22.0644 26.1612C22.3974 26.1792 22.7304 26.154 23.0652 26.1378C23.5894 26.1107 24.1013 25.9688 24.5646 25.722C24.8003 25.6006 25.0304 25.4684 25.254 25.326C25.254 25.326 25.3314 25.2756 25.479 25.164C25.722 24.984 25.8714 24.8562 26.073 24.6456C26.2224 24.4908 26.352 24.309 26.451 24.102C26.5914 23.8086 26.7318 23.2488 26.7894 22.7826C26.8326 22.4262 26.82 22.2318 26.8146 22.1112C26.8074 21.9186 26.6472 21.7188 26.4726 21.6342L25.425 21.1644C25.425 21.1644 23.859 20.4822 22.9032 20.0466C22.8024 20.0027 22.6944 19.9776 22.5846 19.9728C22.4615 19.9601 22.337 19.974 22.2197 20.0134C22.1023 20.0529 21.9947 20.1169 21.9042 20.2014V20.1978C21.8952 20.1978 21.7746 20.3004 20.4732 21.8772C20.3985 21.9776 20.2956 22.0534 20.1777 22.0951C20.0597 22.1368 19.932 22.1424 19.8108 22.1112C19.6935 22.0798 19.5786 22.0401 19.467 21.9924C19.2438 21.8988 19.1664 21.8628 19.0134 21.7962L19.0044 21.7926C17.9746 21.343 17.0212 20.7357 16.1784 19.9926C15.9516 19.7946 15.741 19.5786 15.525 19.3698C14.8169 18.6916 14.1997 17.9244 13.689 17.0874L13.5828 16.9164C13.5065 16.8015 13.4449 16.6775 13.3992 16.5474C13.3308 16.2828 13.509 16.0704 13.509 16.0704C13.509 16.0704 13.9464 15.5916 14.1498 15.3324C14.3192 15.117 14.4772 14.8929 14.6232 14.661C14.8356 14.319 14.9022 13.968 14.7906 13.6962C14.2866 12.465 13.7646 11.2392 13.2282 10.0224C13.122 9.78119 12.807 9.60839 12.5208 9.57419C12.4236 9.56339 12.3264 9.55259 12.2292 9.54539C11.9875 9.53338 11.7453 9.53759 11.5038 9.55439Z" fill="black"/>
</svg>
